# xmcd
#
# Track frame offsets:
#	150
#	16122
#	27765
#	45875
#	57267
#	66665
#
# Disc length: 1176 seconds
#
# Revision: 0
# Processed by: cddbd v1.5.1PL0 Copyright (c) Steve Scherf et al.
# Submitted via: dBpowerAMP V4.0
#
DISCID=43049606
DTITLE=Various Artist - Six Great Hits
DYEAR=1900
DGENRE=
TTITLE0=Always On My Mind - Willie Nelson
TTITLE1=I Never Go Around Mirrors - 
TTITLE2=Help Me Make It Through The Night - 
TTITLE3=Mona Lisa - 
TTITLE4=If You've Got The Money I've Got The Time - 
TTITLE5=City Of New Orleans - 
EXTD=
EXTT0=
EXTT1=
EXTT2=
EXTT3=
EXTT4=
EXTT5=
PLAYORDER=
